<?xml version="1.0" encoding="UTF-8"?>
<svg xmlns="http://www.w3.org/2000/svg" xmlns:xlink="http://www.w3.org/1999/xlink" width="80px" height="55px" viewBox="0 0 80 55" version="1.1">
<g id="surface1">
<path style=" stroke:none;fill-rule:nonzero;fill:rgb(0%,0%,0%);fill-opacity:1;" d="M 43.488281 6.136719 C 42.769531 6.394531 41.628906 7.308594 41.175781 7.984375 C 40.957031 8.320312 40.5625 9.027344 40.328125 9.558594 C 39.921875 10.460938 39.890625 10.667969 39.890625 12.609375 C 39.890625 14.574219 39.921875 14.742188 40.3125 15.535156 C 40.972656 16.800781 41.644531 17.253906 43.003906 17.3125 C 43.980469 17.367188 44.230469 17.3125 44.957031 16.914062 C 46.074219 16.324219 46.34375 15.917969 45.949219 15.417969 L 45.671875 15.070312 L 45.21875 15.4375 C 44.417969 16.078125 44.066406 16.222656 43.238281 16.222656 C 42.5 16.222656 42.378906 16.15625 41.847656 15.59375 C 39.824219 13.429688 41.390625 7.5625 44.105469 7.121094 C 44.519531 7.054688 44.765625 7.09375 44.984375 7.308594 C 45.917969 8.179688 44.449219 10.246094 42.761719 10.40625 C 41.921875 10.492188 41.785156 10.601562 41.921875 11.082031 C 42.265625 12.179688 45.09375 11 46.015625 9.363281 C 46.484375 8.5625 46.578125 7.5625 46.25 6.941406 C 45.808594 6.089844 44.589844 5.734375 43.488281 6.136719 Z M 43.488281 6.136719 "/>
<path style=" stroke:none;fill-rule:nonzero;fill:rgb(0%,0%,0%);fill-opacity:1;" d="M 53.667969 10.28125 C 53.089844 10.507812 52.761719 11.039062 52.855469 11.597656 C 52.949219 12.179688 52.292969 14.683594 51.933594 15.097656 C 51.824219 15.222656 51.683594 15.550781 51.636719 15.789062 C 51.535156 16.128906 51.425781 16.222656 51.175781 16.195312 C 50.863281 16.144531 50.847656 16.03125 50.769531 14.410156 C 50.699219 12.59375 50.574219 12.320312 49.910156 12.402344 C 49.628906 12.445312 49.597656 12.582031 49.597656 13.996094 C 49.597656 15.289062 49.546875 15.59375 49.296875 15.882812 C 48.640625 16.636719 47.953125 16.078125 47.953125 14.792969 C 47.953125 14.34375 48.046875 13.734375 48.171875 13.445312 C 48.421875 12.800781 49.410156 11.90625 49.875 11.851562 C 50.066406 11.835938 50.371094 11.820312 50.535156 11.820312 C 50.878906 11.785156 51.058594 11.304688 50.792969 11.039062 C 50.503906 10.746094 49.347656 10.90625 48.640625 11.328125 C 47.71875 11.882812 47.234375 12.59375 46.921875 13.832031 C 46.609375 15.070312 46.78125 16.03125 47.441406 16.738281 C 47.921875 17.269531 48.832031 17.351562 49.457031 16.929688 C 49.816406 16.691406 49.863281 16.691406 50.136719 16.929688 C 50.480469 17.253906 51.386719 17.269531 51.792969 16.96875 C 52.058594 16.773438 52.183594 16.773438 52.636719 16.96875 C 53.214844 17.21875 54.464844 17.269531 54.597656 17.039062 C 54.640625 16.96875 55.1875 16.738281 55.796875 16.542969 L 56.90625 16.207031 L 57.386719 16.691406 C 57.925781 17.269531 58.816406 17.367188 59.472656 16.929688 C 59.84375 16.691406 59.886719 16.691406 60.152344 16.929688 C 60.546875 17.296875 61.453125 17.253906 61.949219 16.847656 C 62.519531 16.386719 63.015625 15.34375 62.953125 14.730469 C 62.890625 14.105469 62.4375 13.945312 62.277344 14.488281 C 61.921875 15.839844 61.328125 16.511719 60.890625 16.078125 C 60.792969 15.964844 60.699219 15.257812 60.683594 14.359375 C 60.667969 12.734375 60.515625 12.320312 59.953125 12.402344 C 59.652344 12.445312 59.625 12.566406 59.574219 14.054688 C 59.527344 15.726562 59.339844 16.222656 58.761719 16.222656 C 58.035156 16.222656 57.707031 14.628906 58.199219 13.445312 C 58.511719 12.640625 59.417969 11.921875 60.246094 11.785156 C 60.875 11.710938 60.96875 11.644531 60.917969 11.34375 C 60.890625 11.066406 60.75 10.988281 60.136719 10.957031 C 58.511719 10.847656 57.082031 12.289062 56.796875 14.328125 C 56.738281 14.859375 56.597656 15.179688 56.359375 15.34375 C 55.875 15.6875 55.78125 15.648438 55.78125 15.054688 C 55.78125 14.4375 55.359375 13.503906 54.683594 12.59375 C 54.265625 12.03125 54.214844 11.882812 54.375 11.496094 C 54.707031 10.585938 54.375 10.007812 53.667969 10.28125 Z M 54.296875 13.601562 C 54.765625 14.3125 54.859375 15.679688 54.449219 15.839844 C 54.15625 15.964844 53.609375 15.824219 53.230469 15.535156 C 52.949219 15.320312 52.949219 15.289062 53.265625 14.164062 C 53.449219 13.53125 53.667969 13.011719 53.75 13.011719 C 53.828125 13.011719 54.078125 13.285156 54.296875 13.601562 Z M 54.296875 13.601562 "/>
<path style=" stroke:none;fill-rule:nonzero;fill:rgb(0%,0%,0%);fill-opacity:1;" d="M 24.152344 12.640625 C 23.933594 12.675781 23.230469 12.894531 22.574219 13.121094 C 21.449219 13.503906 21.347656 13.53125 21.003906 13.269531 C 20.402344 12.832031 19.550781 12.925781 18.890625 13.53125 C 18.375 13.996094 18.328125 14.089844 18.410156 14.714844 L 18.46875 15.402344 L 13.191406 15.453125 C 8.246094 15.5 7.890625 15.519531 7.574219 15.808594 C 7.261719 16.097656 7.246094 16.269531 7.246094 18.441406 C 7.246094 19.730469 7.324219 21.039062 7.410156 21.351562 C 7.753906 22.507812 8.4375 23.675781 9.015625 24.15625 C 9.542969 24.597656 9.746094 24.65625 10.53125 24.65625 C 11.265625 24.640625 11.53125 24.558594 12 24.1875 C 12.707031 23.648438 13.316406 22.699219 13.480469 21.894531 C 13.644531 21.039062 13.894531 21.074219 14.136719 21.957031 C 14.402344 22.90625 14.675781 23.402344 15.292969 23.980469 C 16.734375 25.300781 18.703125 24.75 19.660156 22.757812 C 19.894531 22.277344 20.082031 21.714844 20.082031 21.542969 C 20.082031 20.945312 20.511719 21.175781 20.597656 21.808594 C 20.730469 22.589844 21.472656 23.773438 22.136719 24.273438 C 22.542969 24.558594 22.871094 24.65625 23.558594 24.65625 C 24.3125 24.65625 24.53125 24.574219 25.046875 24.15625 C 25.734375 23.582031 26.316406 22.757812 26.441406 22.179688 C 26.484375 21.957031 26.59375 21.589844 26.691406 21.363281 C 26.84375 20.980469 26.878906 21.023438 27.160156 21.972656 C 27.53125 23.277344 28.613281 24.496094 29.519531 24.65625 C 30.921875 24.925781 32.265625 23.96875 32.953125 22.21875 C 33.28125 21.363281 33.3125 21.039062 33.3125 18.601562 C 33.3125 17.136719 33.269531 15.867188 33.203125 15.824219 C 32.925781 15.535156 31.390625 15.4375 26.734375 15.417969 L 21.707031 15.417969 L 21.746094 14.644531 L 21.777344 13.898438 L 22.574219 13.601562 C 23.027344 13.460938 24.09375 13.253906 24.949219 13.140625 C 25.796875 13.046875 26.5 12.910156 26.5 12.855469 C 26.5 12.59375 25.15625 12.464844 24.152344 12.640625 Z M 24.152344 12.640625 "/>
<path style=" stroke:none;fill-rule:nonzero;fill:rgb(0%,0%,0%);fill-opacity:1;" d="M 42.871094 18.617188 C 41.675781 18.9375 40.671875 19.839844 40.140625 21.039062 C 39.34375 22.839844 40.09375 26.507812 41.25 26.507812 C 41.410156 26.507812 41.628906 26.332031 41.71875 26.101562 C 41.863281 25.78125 41.847656 25.65625 41.644531 25.410156 C 41.234375 24.957031 40.90625 23.816406 40.90625 22.90625 C 40.90625 21.203125 41.9375 19.9375 43.527344 19.660156 C 45.261719 19.386719 46.546875 20.625 46.796875 22.824219 C 47.15625 25.929688 45.066406 29.878906 43.832031 28.464844 C 43.597656 28.203125 43.574219 27.710938 43.574219 24.765625 C 43.574219 21.863281 43.542969 21.351562 43.324219 21.121094 C 43.175781 20.980469 42.910156 20.882812 42.746094 20.914062 C 42.425781 20.964844 42.425781 21.058594 42.441406 24.691406 C 42.457031 29.4375 42.609375 29.878906 44.308594 29.878906 C 45.605469 29.878906 47 28.355469 47.640625 26.230469 C 48.0625 24.847656 48.0625 22.097656 47.660156 21.074219 C 47.03125 19.46875 45.90625 18.632812 44.269531 18.535156 C 43.761719 18.507812 43.128906 18.535156 42.871094 18.617188 Z M 42.871094 18.617188 "/>
<path style=" stroke:none;fill-rule:nonzero;fill:rgb(0%,0%,0%);fill-opacity:1;" d="M 54.890625 23.222656 C 54.558594 23.566406 54.515625 23.742188 54.574219 24.210938 C 54.671875 24.789062 54.046875 27.160156 53.667969 27.625 C 53.558594 27.757812 53.433594 28.078125 53.375 28.324219 C 53.292969 28.667969 53.183594 28.769531 52.921875 28.722656 C 52.59375 28.667969 52.578125 28.589844 52.527344 27.066406 C 52.484375 25.347656 52.277344 24.832031 51.644531 24.925781 C 51.355469 24.980469 51.316406 25.121094 51.246094 26.714844 C 51.175781 28.011719 51.097656 28.480469 50.933594 28.589844 C 50.550781 28.832031 50.230469 28.785156 49.910156 28.433594 C 49.683594 28.175781 49.640625 27.933594 49.707031 27.066406 C 49.832031 25.492188 50.574219 24.625 51.949219 24.433594 C 52.496094 24.351562 52.578125 24.28125 52.578125 23.9375 C 52.578125 23.597656 52.496094 23.511719 52.074219 23.484375 C 50.378906 23.308594 48.832031 24.800781 48.5 26.921875 C 48.363281 27.746094 48.65625 28.847656 49.128906 29.328125 C 49.582031 29.796875 50.660156 29.863281 51.207031 29.464844 C 51.535156 29.21875 51.605469 29.21875 51.871094 29.476562 C 52.097656 29.683594 52.324219 29.730469 52.839844 29.652344 C 53.71875 29.507812 54.105469 29.507812 55.1875 29.652344 C 55.890625 29.730469 56.175781 29.699219 56.488281 29.492188 C 56.6875 29.34375 56.988281 29.234375 57.140625 29.234375 C 57.300781 29.234375 57.785156 29.054688 58.238281 28.847656 C 59.121094 28.433594 59.636719 27.695312 59.464844 27.144531 C 59.363281 26.824219 58.761719 26.675781 58.761719 26.964844 C 58.761719 27.210938 57.964844 28.109375 57.746094 28.109375 C 57.628906 28.109375 57.519531 27.820312 57.457031 27.375 C 57.410156 26.839844 57.175781 26.332031 56.660156 25.5625 C 55.984375 24.527344 55.957031 24.449219 56.125 23.898438 C 56.21875 23.582031 56.25 23.207031 56.207031 23.070312 C 56.050781 22.683594 55.34375 22.757812 54.890625 23.222656 Z M 56.015625 26.167969 C 56.453125 26.824219 56.597656 27.980469 56.285156 28.300781 C 56.082031 28.515625 55.09375 28.339844 54.84375 28.035156 C 54.707031 27.855469 54.734375 27.59375 54.941406 26.871094 C 55.1875 26.027344 55.421875 25.535156 55.5625 25.535156 C 55.597656 25.535156 55.796875 25.832031 56.015625 26.167969 Z M 56.015625 26.167969 "/>
<path style=" stroke:none;fill-rule:nonzero;fill:rgb(0%,0%,0%);fill-opacity:1;" d="M 20.191406 25.054688 C 20.140625 25.1875 20.03125 25.585938 19.9375 25.945312 C 19.578125 27.335938 18.1875 28.589844 17.011719 28.589844 C 15.777344 28.574219 14.660156 27.550781 14.183594 25.960938 C 14.027344 25.460938 13.847656 25.054688 13.808594 25.054688 C 13.738281 25.054688 13.613281 25.367188 13.519531 25.730469 C 12.972656 27.746094 11.265625 28.945312 9.71875 28.417969 C 8.949219 28.160156 7.933594 27.019531 7.683594 26.121094 C 7.589844 25.75 7.449219 25.394531 7.371094 25.316406 C 7.300781 25.21875 7.246094 27.773438 7.246094 30.96875 C 7.246094 35.5 7.191406 36.78125 7.050781 36.796875 C 6.941406 36.796875 6.519531 36.796875 6.105469 36.78125 C 5.40625 36.769531 5.363281 36.78125 5.363281 37.167969 L 5.363281 37.59375 L 20.238281 37.59375 C 33.738281 37.59375 35.125 37.566406 35.222656 37.332031 C 35.347656 36.988281 35.003906 36.769531 34.328125 36.796875 C 34.035156 36.796875 33.691406 36.820312 33.597656 36.796875 C 33.4375 36.78125 33.390625 35.53125 33.390625 31.101562 C 33.390625 27.46875 33.328125 25.367188 33.234375 25.300781 C 33.160156 25.246094 33.078125 25.347656 33.078125 25.535156 C 33.078125 25.960938 32.53125 27.101562 32.078125 27.59375 C 31.625 28.109375 30.6875 28.589844 30.136719 28.589844 C 29.464844 28.589844 28.683594 28.203125 28.121094 27.59375 C 27.597656 27.035156 26.96875 25.730469 26.96875 25.203125 C 26.96875 24.722656 26.707031 24.996094 26.582031 25.585938 C 26.238281 27.226562 24.828125 28.589844 23.496094 28.589844 C 22.417969 28.589844 21.253906 27.582031 20.785156 26.230469 C 20.316406 24.847656 20.292969 24.789062 20.191406 25.054688 Z M 20.191406 25.054688 "/>
<path style=" stroke:none;fill-rule:nonzero;fill:rgb(0%,0%,0%);fill-opacity:1;" d="M 42.582031 31.226562 C 41.550781 31.613281 40.671875 32.4375 40.191406 33.496094 C 39.5 34.96875 39.714844 37.363281 40.628906 38.347656 C 40.890625 38.636719 41 38.667969 41.175781 38.515625 C 41.675781 38.101562 41.703125 37.78125 41.300781 37.167969 C 40.988281 36.703125 40.90625 36.382812 40.90625 35.597656 C 40.921875 33.894531 41.738281 32.65625 43.144531 32.269531 C 45.066406 31.738281 46.621094 32.867188 46.609375 34.773438 C 46.609375 35.882812 46.328125 36.644531 45.65625 37.347656 C 45.09375 37.960938 43.925781 38.597656 43.691406 38.457031 C 43.636719 38.40625 43.574219 37.234375 43.574219 35.835938 C 43.574219 33.167969 43.503906 32.929688 42.832031 32.929688 L 42.472656 32.929688 L 42.472656 37.347656 C 42.472656 41.648438 42.488281 41.761719 42.800781 41.925781 C 43.417969 42.265625 43.574219 42.019531 43.574219 40.800781 C 43.574219 39.886719 43.613281 39.679688 43.816406 39.679688 C 44.324219 39.679688 44.917969 40.5625 45.355469 41.9375 C 45.589844 42.695312 45.933594 43.519531 46.140625 43.769531 L 46.496094 44.222656 L 46.980469 43.917969 C 47.578125 43.5625 47.59375 43.503906 47.125 42.84375 C 46.921875 42.554688 46.59375 41.894531 46.402344 41.359375 C 46.21875 40.835938 45.839844 40.109375 45.574219 39.777344 L 45.09375 39.144531 L 45.546875 38.804688 C 48.457031 36.703125 48.53125 32.625 45.683594 31.308594 C 44.933594 30.953125 43.449219 30.921875 42.582031 31.226562 Z M 42.582031 31.226562 "/>
<path style=" stroke:none;fill-rule:nonzero;fill:rgb(0%,0%,0%);fill-opacity:1;" d="M 64.003906 31.292969 C 63.925781 31.351562 63.84375 32.09375 63.84375 32.929688 L 63.84375 34.457031 L 63.113281 34.5 C 62.644531 34.539062 62.359375 34.632812 62.359375 34.761719 C 62.359375 35.144531 62.769531 35.484375 63.300781 35.53125 L 63.84375 35.582031 L 63.894531 37.398438 C 63.9375 39.351562 63.769531 40.316406 63.28125 40.816406 C 63.03125 41.070312 62.921875 41.101562 62.734375 40.945312 C 62.5625 40.800781 62.519531 40.269531 62.519531 38.539062 C 62.519531 36.160156 62.390625 35.738281 61.6875 35.847656 C 61.40625 35.898438 61.371094 36.011719 61.40625 37.554688 C 61.4375 38.953125 61.386719 39.320312 61.109375 39.917969 C 60.574219 41.054688 59.355469 41.429688 58.566406 40.6875 C 58.167969 40.300781 58.222656 40.09375 58.839844 39.789062 C 59.128906 39.640625 59.574219 39.226562 59.808594 38.855469 C 60.167969 38.292969 60.246094 37.992188 60.246094 37.234375 C 60.246094 36.414062 60.203125 36.242188 59.859375 35.984375 C 59.339844 35.558594 58.761719 35.582031 58.113281 36.027344 C 57.347656 36.558594 56.90625 37.472656 56.785156 38.792969 C 56.660156 40.109375 56.425781 40.574219 55.6875 40.894531 C 55.035156 41.167969 54.53125 41.054688 54.03125 40.523438 C 53.359375 39.789062 53.609375 37.203125 54.40625 36.769531 C 54.765625 36.574219 55.160156 36.832031 55.160156 37.277344 C 55.160156 37.648438 55.394531 37.796875 55.78125 37.664062 C 56.25 37.507812 56.207031 36.671875 55.671875 36.109375 C 54.484375 34.839844 52.605469 36.382812 52.402344 38.804688 C 52.292969 40.082031 52.074219 40.523438 51.386719 40.878906 C 50.792969 41.199219 50.144531 41.070312 49.683594 40.5625 L 49.332031 40.191406 L 49.765625 39.945312 C 50.738281 39.421875 51.550781 38.132812 51.550781 37.125 C 51.550781 36.847656 51.386719 36.449219 51.152344 36.160156 C 50.589844 35.464844 49.902344 35.484375 49.113281 36.175781 C 48.347656 36.878906 47.953125 37.761719 47.953125 38.921875 C 47.953125 40.082031 48.222656 40.738281 48.941406 41.398438 C 49.875 42.242188 51.136719 42.292969 52.25 41.523438 L 52.8125 41.140625 L 53.375 41.523438 C 54.4375 42.265625 55.613281 42.242188 56.660156 41.460938 L 57.277344 41.003906 L 57.839844 41.46875 C 58.636719 42.128906 59.699219 42.230469 60.65625 41.730469 L 61.386719 41.34375 L 61.796875 41.714844 C 62.277344 42.128906 62.734375 42.183594 63.300781 41.84375 C 63.515625 41.714844 63.769531 41.570312 63.878906 41.507812 C 63.988281 41.460938 64.253906 41.570312 64.488281 41.746094 C 65.019531 42.183594 65.652344 42.183594 66.175781 41.746094 C 66.410156 41.570312 66.683594 41.460938 66.792969 41.507812 C 66.902344 41.570312 67.152344 41.714844 67.371094 41.84375 C 67.890625 42.144531 68.402344 42.144531 68.921875 41.828125 C 69.308594 41.589844 69.390625 41.589844 69.84375 41.828125 C 70.457031 42.144531 70.765625 42.144531 71.347656 41.84375 C 71.765625 41.621094 71.878906 41.621094 72.410156 41.84375 C 73.191406 42.167969 73.496094 42.144531 74.386719 41.785156 C 74.792969 41.621094 75.417969 41.398438 75.792969 41.265625 C 76.515625 41.039062 77.394531 40.191406 77.394531 39.695312 C 77.394531 39.53125 77.285156 39.285156 77.140625 39.175781 C 76.90625 38.980469 76.859375 38.996094 76.699219 39.273438 C 76.40625 39.820312 75.683594 40.511719 75.515625 40.394531 C 75.433594 40.355469 75.355469 40.011719 75.355469 39.679688 C 75.355469 39.210938 75.183594 38.792969 74.652344 37.976562 C 74.003906 36.988281 73.949219 36.832031 73.996094 36 C 74.019531 35.175781 73.996094 35.101562 73.660156 35.050781 C 73.441406 35.019531 73.152344 35.160156 72.839844 35.5 C 72.410156 35.914062 72.371094 36.0625 72.441406 36.542969 C 72.550781 37.136719 71.890625 39.546875 71.503906 40.011719 C 71.378906 40.140625 71.285156 40.386719 71.285156 40.511719 C 71.285156 40.929688 70.859375 41.199219 70.582031 40.960938 C 70.40625 40.800781 70.347656 40.386719 70.347656 39.175781 C 70.347656 37.648438 70.328125 37.59375 69.9375 37.332031 C 69.347656 36.933594 69.214844 37.203125 69.1875 38.953125 C 69.171875 40.386719 69.140625 40.523438 68.796875 40.816406 C 68.359375 41.183594 68.324219 41.183594 67.921875 40.863281 C 67.4375 40.496094 67.480469 38.691406 67.980469 37.863281 C 68.386719 37.183594 69.308594 36.628906 70.035156 36.628906 C 70.378906 36.628906 70.5 36.542969 70.5 36.339844 C 70.5 35.355469 68.9375 35.484375 67.6875 36.574219 C 67.027344 37.136719 66.433594 38.441406 66.433594 39.3125 C 66.433594 40.589844 65.808594 41.429688 65.253906 40.863281 C 65.050781 40.65625 65.019531 40.21875 65.050781 38.101562 L 65.105469 35.582031 L 66.542969 35.53125 C 67.808594 35.5 68.015625 35.449219 68.15625 35.160156 C 68.46875 34.585938 68.277344 34.5 66.667969 34.46875 L 65.105469 34.457031 L 65.050781 33.027344 C 65.019531 31.902344 64.957031 31.546875 64.734375 31.386719 C 64.441406 31.148438 64.222656 31.117188 64.003906 31.292969 Z M 50.300781 37.414062 C 50.300781 38.023438 49.792969 39.019531 49.410156 39.160156 C 49.160156 39.242188 49.128906 38.132812 49.363281 37.472656 C 49.546875 36.972656 49.957031 36.589844 50.160156 36.722656 C 50.246094 36.769531 50.300781 37.074219 50.300781 37.414062 Z M 59.167969 37.648438 C 59.035156 38.347656 58.324219 39.285156 58.089844 39.050781 C 57.855469 38.804688 58.097656 37.507812 58.472656 37.027344 C 58.761719 36.644531 58.816406 36.628906 59.035156 36.832031 C 59.199219 37.011719 59.246094 37.25 59.167969 37.648438 Z M 73.933594 38.5 C 74.386719 39.242188 74.511719 40.125 74.214844 40.546875 C 73.996094 40.851562 73.964844 40.851562 73.261719 40.574219 C 72.863281 40.410156 72.535156 40.257812 72.535156 40.191406 C 72.535156 39.835938 73.261719 37.90625 73.386719 37.90625 C 73.480469 37.90625 73.730469 38.183594 73.933594 38.5 Z M 73.933594 38.5 "/>
<path style=" stroke:none;fill-rule:nonzero;fill:rgb(0%,0%,0%);fill-opacity:1;" d="M 61.480469 32.867188 C 61.078125 33.496094 61.34375 34.117188 62.015625 34.179688 C 62.660156 34.25 62.988281 33.988281 62.988281 33.410156 C 62.988281 32.507812 61.949219 32.121094 61.480469 32.867188 Z M 61.480469 32.867188 "/>
</g>
</svg>
